<?xml version="1.0" ?>
<!DOCTYPE svg  PUBLIC '-//W3C//DTD SVG 1.1//EN'  'http://www.w3.org/Graphics/SVG/1.1/DTD/svg11.dtd'>
<!-- Uploaded to: SVG Repo, www.svgrepo.com, Generator: SVG Repo Mixer Tools -->
<svg fill="#000000" width="800px" height="800px" viewBox="0 0 100 100" version="1.1" xml:space="preserve" xmlns="http://www.w3.org/2000/svg" xmlns:xlink="http://www.w3.org/1999/xlink">
<g id="_x31_"/>
<g id="_x32_"/>
<g id="_x33_"/>
<g id="_x34_"/>
<g id="_x35_"/>
<g id="_x36_"/>
<g id="_x37_"/>
<g id="_x38_"/>
<g id="_x39_"/>
<g id="_x31_0"/>
<g id="_x31_1"/>
<g id="_x31_2"/>
<g id="_x31_3"/>
<g id="_x31_4"/>
<g id="_x31_5"/>
<g id="_x31_6"/>
<g id="_x31_7"/>
<g id="_x31_8"/>
<g id="_x31_9"/>
<g id="_x32_0"/>
<g id="_x32_1">
<path d="M19.7,40.2c-0.5,0-1-0.2-1.4-0.6L14,35.3c-4.4-4.4-4.4-11.7,0-16.1l5.2-5.2c2.1-2.1,5-3.3,8-3.3c3,0,5.9,1.2,8,3.3l4.3,4.3   c0.4,0.4,0.6,0.9,0.6,1.4s-0.2,1-0.6,1.4L21.1,39.6C20.7,40,20.2,40.2,19.7,40.2z M27.2,14.6c-2,0-3.8,0.8-5.2,2.2L16.8,22   c-2.9,2.9-2.9,7.6,0,10.4l2.9,2.9l15.7-15.7l-2.9-2.9C31.1,15.4,29.2,14.6,27.2,14.6z M78.9,85.3c-1.5,0-3-0.5-4.2-1.6L55.9,66.8   c-0.7-0.6-1.7-0.5-2.3,0.1c-2.2,2.2-5.8,2.2-8,0L18.2,39.5c-0.8-0.8-0.8-2,0-2.8l18.5-18.5c0.8-0.8,2-0.8,2.8,0l27.4,27.4   c2.2,2.2,2.2,5.8,0,8c-0.6,0.6-0.7,1.6-0.1,2.3l16.8,18.8c2.2,2.5,2.1,6.3-0.2,8.7C82.2,84.7,80.6,85.3,78.9,85.3z M54.8,62.4   c1.3,0,2.7,0.5,3.8,1.4l18.8,16.8c0.9,0.8,2.3,0.8,3.2-0.1c0.9-0.9,0.9-2.3,0.1-3.2L63.8,58.6c-2-2.3-1.9-5.7,0.2-7.8   c0.7-0.7,0.7-1.7,0-2.4l-26-26L22.4,38.1l26,26c0.7,0.7,1.7,0.7,2.4,0C51.9,63,53.4,62.4,54.8,62.4z M49.2,59.1   c-0.5,0-1-0.2-1.4-0.6L34.1,44.8c-0.8-0.8-0.8-2,0-2.8l7.9-7.9c0.8-0.8,2-0.8,2.8,0l13.7,13.7c0.8,0.8,0.8,2,0,2.8l-7.9,7.9   C50.2,58.9,49.7,59.1,49.2,59.1z M38.4,43.4l10.8,10.8l5-5L43.4,38.4L38.4,43.4z M35.9,36.2c0.4-0.4,0.6-0.9,0.6-1.4   c0-0.5-0.2-1-0.6-1.4c-0.8-0.8-2.1-0.8-2.8,0c-0.4,0.4-0.6,0.9-0.6,1.4c0,0.5,0.2,1,0.6,1.4c0.4,0.4,0.9,0.6,1.4,0.6   C35,36.8,35.5,36.5,35.9,36.2z"/>
</g>
<g id="_x32_2"/>
<g id="_x32_3"/>
<g id="_x32_4"/>
<g id="_x32_5"/>
</svg>